# xmcd
#
# Track frame offsets: 
#        150
#        18247
#        34059
#        49662
#        67432
#        84254
#        103719
#        117992
#        131338
#        146677
#        161291
#        176010
#
# Disc length: 2790 seconds
#
# Revision: 0
# Processed by: cddbd v1.5.2PL0 Copyright (c) Steve Scherf et al.
# Submitted via: ExactAudioCopy v1.0b2
#
DISCID=9e0ae40c
DTITLE=Tavares - In The City
DYEAR=1975
DGENRE=Soul
TTITLE0=It Only Takes A Minute
TTITLE1=The Fool's Hall Of Fame
TTITLE2=The Love I Never Had
TTITLE3=Nothing You Can Do
TTITLE4=In The Eyes Of Love
TTITLE5=Ready, Willing, And Able
TTITLE6=We Fit To A Tee
TTITLE7=Free Ride
TTITLE8=I Hope She Chooses Me
TTITLE9=In The City
TTITLE10=It Only Takes A Minute (Single Version)
TTITLE11=It Only Takes A Minute (Extended Remix)
EXTD=
EXTT0=
EXTT1=
EXTT2=
EXTT3=
EXTT4=
EXTT5=
EXTT6=
EXTT7=
EXTT8=
EXTT9=
EXTT10=
EXTT11=
PLAYORDER=
